<?xml version="1.0" encoding="UTF-8" standalone="no"?>
<!-- SPDX-FileCopyrightText: 2026 Lari Natri <lari.natri@iki.fi> -->
<!-- SPDX-License-Identifier: Apache-2.0 -->
<svg
   viewBox="0 0 256 256"
   role="img"
   aria-labelledby="logo-title logo-description"
   version="1.1"
   id="svg1"
   sodipodi:docname="unilarva-translator-logo.svg"
   inkscape:version="1.4.4 (dcaf3e7d9e, 2026-05-05)"
   xmlns:inkscape="http://www.inkscape.org/namespaces/inkscape"
   xmlns:sodipodi="http://sodipodi.sourceforge.net/DTD/sodipodi-0.dtd"
   xmlns="http://www.w3.org/2000/svg"
   xmlns:svg="http://www.w3.org/2000/svg"
   xmlns:rdf="http://www.w3.org/1999/02/22-rdf-syntax-ns#"
   xmlns:cc="http://creativecommons.org/ns#"
   xmlns:dc="http://purl.org/dc/elements/1.1/">
  <defs
     id="defs1" />
  <sodipodi:namedview
     id="namedview1"
     pagecolor="#ffffff"
     bordercolor="#000000"
     borderopacity="0.25"
     inkscape:showpageshadow="2"
     inkscape:pageopacity="0.0"
     inkscape:pagecheckerboard="0"
     inkscape:deskcolor="#d1d1d1"
     inkscape:zoom="1.6793786"
     inkscape:cx="47.636667"
     inkscape:cy="205.43313"
     inkscape:window-width="1685"
     inkscape:window-height="1224"
     inkscape:window-x="0"
     inkscape:window-y="0"
     inkscape:window-maximized="0"
     inkscape:current-layer="logo-translator-mark" />
  <title
     id="logo-title">Unilarva Translator Logo</title>
  <desc
     id="logo-description">
    Translator bubbles held inside a U-shaped viewport.
  </desc>
  <!--
    The two top-level groups are intentionally independent.

    When this SVG is inline, both inherit the surrounding CSS `color`.
    They can also be styled separately using the CSS custom properties
    referenced in the style attributes below.
  -->
  <g
     id="logo-u-mark"
     inkscape:groupmode="layer"
     inkscape:label="Unilarva U"
     style="       color: currentColor;       color: var(--logo-u-color, currentColor);       opacity: 0.72;       opacity: var(--logo-u-opacity, 0.72);     ">
    <path
       id="logo-u-outline"
       d="M 44,50 V 150 C 44,195 77,220 128,220 C 179,220 212,195 212,150 V 50"
       fill="none"
       stroke="currentColor"
       stroke-width="22"
       stroke-linecap="round"
       stroke-linejoin="round" />
  </g>
  <g
     id="logo-translator-mark"
     inkscape:groupmode="layer"
     inkscape:label="Translator"
     style="       color: currentColor;       color: var(--logo-pdf-page-color, currentColor);       opacity: 1;       opacity: var(--logo-pdf-page-opacity, 1);     ">
     transform="translate(0.49999968,8.5)">
    <g
       id="g1"
       inkscape:label="logo-translator-a"
       transform="matrix(0.94383219,0,0,0.94383219,65.884377,178.66416)">
      <path
         id="path1"
         d="M 61,-92.998872 H 15 a 10,10 0 0 0 -10,10 v 48.999997 a 10,10 0 0 0 10,10 h 6 l -10,11 21,-11 h 29 a 10,10 0 0 0 10,-10 v -48.999997 a 10,10 0 0 0 -10,-10 z"
         fill="none"
         stroke="currentColor"
         stroke-width="9"
         stroke-linecap="round"
         stroke-linejoin="round"
         inkscape:label="logo-translator-card-a"
         style="fill:#ffffff;fill-opacity:1" />
      <path
         id="logo-translator-glyph-front"
         d="m 49.74654,-35.782055 -3.33612,-10.90656 H 29.7298 l -3.33611,10.90656 H 15.93623 l 16.16736,-45.999999 h 11.8689 l 16.23152,45.999999 z m -8.98187,-29.70431 q -0.32077,-1.09066 -0.83402,-2.75872 -0.51326,-1.66808 -1.02649,-3.40029 -0.51326,-1.73222 -0.83405,-3.015342 -0.32078,1.283122 -0.86611,3.175732 -0.54532,1.89262 -1.0265,3.59274 -0.48117,1.70015 -0.73779,2.40588 l -3.27196,10.64993 H 44.1008 Z"
         fill="currentColor"
         style="stroke-width:0.0641562"
         inkscape:label="logo-translator-glyph-a" />
    </g>
    <g
       id="g2"
       inkscape:label="logo-translator-b"
       transform="matrix(0.94383219,0,0,0.94383219,31.967564,-8.429534)">
      <path
         id="logo-translator-card-back"
         d="m 105.5,79.500563 h 46 a 10,10 0 0 1 10,10 v 48.999997 a 10,10 0 0 1 -10,10 h -6 l 10,11 -21,-11 h -29 a 10,10 0 0 1 -10,-10 V 89.500563 a 10,10 0 0 1 10,-10 z"
         fill="none"
         stroke="currentColor"
         stroke-width="9"
         stroke-linecap="round"
         stroke-linejoin="round"
         style="fill:#ffffff;fill-opacity:1"
         inkscape:label="logo-translator-card-b" />
      <path
         id="logo-translator-glyph-back"
         d="m 141.23959,104.2156 -6.43577,-1.52982 c -0.0527,0.79128 -0.26376,2.11009 -0.47477,3.16514 h -0.94955 c -2.58485,0 -5.32798,0.36926 -7.86008,0.94953 L 125.88868,102 c 6.48853,-0.26377 13.55734,-0.89679 18.72707,-1.84633 l -0.0527,-6.11927 c -5.80274,1.37156 -11.5,2.05734 -17.93576,2.32111 l 0.52752,-2.901389 c 0.211,-0.79128 0.42202,-1.74082 0.73854,-2.79587 l -6.8578,-0.158252 c 0.0527,0.896792 -0.0527,2.162842 -0.10545,3.165132 l -0.31651,2.848629 h -2.11009 c -3.21789,0 -7.86009,-0.42202 -9.70643,-0.73853 l 0.15826,6.11926 c 2.47936,0.10545 6.59404,0.31652 9.33716,0.31652 h 1.68807 c -0.21101,2.16284 -0.36926,4.37843 -0.47477,6.64679 -7.38533,3.48164 -12.97707,10.55045 -12.97707,17.3555 0,5.32798 3.27065,7.64908 7.12157,7.64908 2.79586,0 5.59173,-0.84404 8.1766,-2.11009 l 0.68577,2.16284 6.06651,-1.84634 c -0.42202,-1.26605 -0.84404,-2.58485 -1.2133,-3.90366 4.00917,-3.32339 8.22935,-8.86238 11.07798,-16.0367 3.63991,1.42432 5.48624,4.22018 5.48624,7.38533 0,5.16972 -4.11468,10.33944 -14.29588,11.44724 l 3.48157,5.539 c 12.97706,-1.95184 17.3555,-9.1789 17.3555,-16.66973 0,-6.11926 -4.06193,-10.91973 -10.18119,-12.92431 z m -8.65137,7.01604 c -1.79357,4.27294 -4.11467,7.43809 -6.69954,10.02294 -0.36927,-2.63761 -0.58028,-5.48624 -0.58028,-8.70413 v -0.15825 c 2.05736,-0.63303 4.48395,-1.1078 7.27982,-1.16056 z m -12.13303,14.45414 c -1.89908,1.10779 -3.79816,1.74082 -5.27522,1.74082 -1.68808,0 -2.42661,-0.89678 -2.42661,-2.58486 0,-3.00688 2.63762,-7.01605 6.59403,-9.70642 0.10545,3.63991 0.52753,7.27981 1.1078,10.55046 z"
         fill="currentColor"
         style="stroke-width:0.0527523"
         inkscape:label="logo-translator-glyph-b" />
    </g>
  </g>
  <metadata
     id="metadata1">
    <rdf:RDF>
      <cc:Work
         rdf:about="">
        <dc:title>Unilarva Translator Logo</dc:title>
        <dc:creator>
          <cc:Agent>
            <dc:title>Lari Natri</dc:title>
          </cc:Agent>
        </dc:creator>
        <dc:subject>
          <rdf:Bag>
            <rdf:li>unilarva</rdf:li>
            <rdf:li>translator</rdf:li>
            <rdf:li>logo</rdf:li>
          </rdf:Bag>
        </dc:subject>
        <dc:description>Master version (uses current color)</dc:description>
        <dc:rights>
          <cc:Agent>
            <dc:title>Copyright © 2026 Lari Natri. Licensed under the Apache License, Version 2.0.
The Unilarva name and logo are project marks; no trademark rights are granted.</dc:title>
          </cc:Agent>
        </dc:rights>
        <cc:license
           rdf:resource="https://www.apache.org/licenses/LICENSE-2.0" />
        <dc:date>2026-08-24</dc:date>
      </cc:Work>
    </rdf:RDF>
  </metadata>
</svg>
